Coordinates
version=1
nRows=9
nColumns=24
inDegrees=yes

Units are S.I. units (second, meters, Newtons, ...)
Angles are in degrees.

endheader
time	pelvis_tilt	pelvis_list	pelvis_rotation	pelvis_tx	pelvis_ty	pelvis_tz	hip_flexion_r	hip_adduction_r	hip_rotation_r	knee_angle_r	ankle_angle_r	subtalar_angle_r	mtp_angle_r	hip_flexion_l	hip_adduction_l	hip_rotation_l	knee_angle_l	ankle_angle_l	subtalar_angle_l	mtp_angle_l	lumbar_extension	lumbar_bending	lumbar_rotation
      1.75000000	     21.25992549	     -4.57892038	      4.91056217	     -0.15523542	      0.85709421	     -0.05138482	     -4.19410393	      4.20788783	    -18.58954892	    -36.71475536	     31.96301585	      4.37197069	     31.87797153	    -19.54261996	     -4.56330776	    -12.44230931	    -21.30617697	     29.86854985	     16.01550407	     29.42615985	    -37.08108082	      5.79260782	    -10.35985566
      1.75500000	     21.36099152	     -4.85892048	      5.04443432	     -0.14991782	      0.85700315	     -0.05107197	     -4.37546475	      4.77032892	    -18.82987284	    -33.93171014	     31.67209080	      4.45847407	     32.90158770	    -19.96782498	     -5.00316971	    -12.60625679	    -21.50879824	     30.31742295	     16.38995557	     28.74840438	    -37.19861966	      6.10476239	    -10.35804918
      1.76000000	     21.51561223	     -5.06018360	      5.23327611	     -0.14452820	      0.85696959	     -0.05091378	     -4.68884004	      5.24857305	    -19.22360849	    -31.04309785	     31.43158041	      4.80071297	     33.00296420	    -20.50765751	     -5.34680498	    -12.59890302	    -21.54710766	     30.56514469	     16.48227056	     28.68911985	    -37.36262605	      6.38273653	    -10.43174109
      1.76500000	     21.64681750	     -5.26869158	      5.42187938	     -0.13907436	      0.85683145	     -0.05065144	     -5.02411294	      5.76722617	    -19.60576696	    -28.04287498	     31.10086921	      5.11573465	     33.19858667	    -21.00301590	     -5.72380808	    -12.66556630	    -21.64948046	     30.88114210	     16.72142853	     28.64720276	    -37.49162529	      6.65572818	    -10.48309512
      1.77000000	     21.76651150	     -5.45073296	      5.59748985	     -0.13353879	      0.85662543	     -0.05030891	     -5.39636469	      6.28131816	    -19.99193442	    -24.95210565	     30.67336287	      5.45890207	     33.53195906	    -21.48993420	     -6.08153614	    -12.78031838	    -21.76719206	     31.18078415	     17.00004083	     28.58757865	    -37.60024610	      6.89039431	    -10.54022025
      1.77500000	     21.83127367	     -5.63333213	      5.74888387	     -0.12795635	      0.85625821	     -0.04983774	     -5.73562074	      6.81862057	    -20.33082670	    -21.79462998	     29.95258478	      5.62262791	     35.50927809	    -21.89226498	     -6.45538247	    -12.99392484	    -21.97259801	     31.60233025	     17.39915499	     28.15396190	    -37.64572107	      7.10180179	    -10.60174574
      1.78000000	     21.91144368	     -5.70355546	      5.92619540	     -0.12232312	      0.85587078	     -0.04947615	     -6.11309307	      7.22594457	    -20.82958325	    -18.70005040	     29.43769688	      6.21492702	     35.64639360	    -22.36144571	     -6.68691478	    -13.00837183	    -22.03758923	     31.86058918	     17.54046306	     28.14473119	    -37.69967577	      7.23139260	    -10.70667255
      1.78500000	     21.92860056	     -5.80419362	      6.05459658	     -0.11657423	      0.85530527	     -0.04890406	     -6.45232541	      7.69840589	    -21.21199478	    -15.54847021	     28.62596623	      6.55894941	     37.34731466	    -22.74105773	     -6.97344149	    -13.21664735	    -22.21188648	     32.20463756	     17.94135631	     27.92145644	    -37.67482164	      7.34657739	    -10.78210589
      1.79000000	     21.94891560	     -5.78828982	      6.18772656	     -0.11086237	      0.85467871	     -0.04837907	     -6.78515204	      8.03407624	    -21.70263284	    -12.55238422	     27.97634842	      7.27592863	     37.51111577	    -23.13672484	     -7.11863882	    -13.27254272	    -22.33728721	     32.47329729	     18.11679466	     27.93471446	    -37.66194426	      7.35890676	    -10.91523680
